<svg width="57" height="58" viewBox="0 0 57 58" fill="none" xmlns="http://www.w3.org/2000/svg">
<path d="M7.53712 25V8.2H11.4491L18.4091 19.624H16.3451L23.1131 8.2H27.0251L27.0731 25H22.7051L22.6571 14.848H23.4011L18.3371 23.344H16.2251L11.0171 14.848H11.9291V25H7.53712Z" fill="#00AA81"/>
<g clip-path="url(#clip0_16_88)">
<path d="M47.5123 53.2728C47.5152 54.1348 47.7535 54.9797 48.2015 55.7167C48.6495 56.4537 49.2903 57.0548 50.055 57.4555C50.8197 57.8562 51.6794 58.0413 52.5416 57.9909C53.4038 57.9404 54.2359 57.6564 54.9484 57.1692C55.661 56.6821 56.227 56.0104 56.5857 55.2262C56.9444 54.442 57.0821 53.5751 56.9841 52.7186C56.8861 51.8621 56.556 51.0485 56.0294 50.3653C55.5028 49.682 54.7996 49.155 53.9953 48.8408V44.8372C53.9719 42.673 53.089 40.6066 51.5405 39.0915C49.9921 37.5764 47.9045 36.7365 45.7362 36.7562H41.207C39.0915 36.7656 37.059 37.5791 35.5232 39.0313C34.1982 40.275 33.3369 41.9318 33.081 43.7292L33.007 44.2906C32.9837 45.5641 32.4573 46.7769 31.5426 47.665C30.6278 48.5531 29.3987 49.0447 28.1226 49.0328H23.5341C22.2594 49.0526 21.0286 48.5681 20.1106 47.6851C19.1927 46.8021 18.6621 45.5923 18.6349 44.3201V35.8846C19.4872 35.4082 20.1193 34.6183 20.3963 33.6833C24.1781 33.0646 27.62 31.1342 30.1162 28.232C32.6125 25.3297 34.003 21.6416 34.0431 17.8168V11.9075C34.0214 9.51905 33.1948 7.20742 31.6966 5.3449C30.1984 3.48238 28.1157 2.17737 25.784 1.64004C25.4982 1.13677 25.0824 0.719174 24.58 0.430762C24.0776 0.142351 23.5068 -0.00632952 22.9273 0.000206568C22.4775 0.000200113 22.0327 0.0949382 21.6221 0.278229C21.2114 0.46152 20.8442 0.729238 20.5443 1.06388L20.7663 1.56618L20.8995 1.3889C21.5294 1.94492 22.0353 2.62669 22.3846 3.39013C22.7339 4.15356 22.9188 4.98166 22.9273 5.82089V5.90953H22.7053L22.9273 6.4266C23.438 6.42665 23.9416 6.30625 24.3969 6.07519C24.8521 5.84413 25.2463 5.50896 25.5471 5.097C27.0127 5.56674 28.295 6.48089 29.2156 7.71218C30.1362 8.94347 30.6492 10.4306 30.6832 11.9666V17.8759C30.617 20.88 29.5149 23.7694 27.5628 26.0569C25.6107 28.3444 22.928 29.8901 19.967 30.4332H19.8634C19.9549 30.5729 20.0201 30.7281 20.0558 30.8912V32.6492C20.0777 32.8555 20.0777 33.0634 20.0558 33.2697C19.1164 33.4244 18.1661 33.5034 17.214 33.5061H16.9031C15.8306 33.5057 14.7604 33.4068 13.7061 33.2106C13.6914 33.0238 13.6914 32.8361 13.7061 32.6492V31.0242C13.6979 30.9406 13.6979 30.8565 13.7061 30.773C13.7516 30.6053 13.8323 30.4492 13.9429 30.315H13.8097C10.9152 29.7256 8.30962 28.1663 6.42509 25.8957C4.54057 23.6251 3.49037 20.7798 3.44871 17.8316V11.9223C3.47063 10.4348 3.94931 8.9898 4.82014 7.78246C5.69097 6.57512 6.91199 5.66357 8.31836 5.17086C8.61787 5.56564 9.00493 5.8858 9.4492 6.10623C9.89347 6.32666 10.3829 6.44138 10.879 6.44137L11.101 5.90953H10.879C10.8875 5.0703 11.0724 4.2422 11.4217 3.47877C11.771 2.71533 12.2769 2.03356 12.9068 1.47754C12.9558 1.53299 13.0004 1.59228 13.04 1.65482L13.3212 1.06388C13.0123 0.724726 12.635 0.454619 12.2141 0.2713C11.7932 0.0879802 11.3382 -0.00440612 10.879 0.000206568C10.2839 -0.00255451 9.69977 0.16054 9.19247 0.471131C8.68516 0.781723 8.27479 1.22748 8.00753 1.75823C5.73588 2.34779 3.72145 3.66645 2.2745 5.51109C0.827545 7.35572 0.0283465 9.62402 0 11.9666L0 17.8759C0.0791621 21.6246 1.44535 25.2325 3.87011 28.0964C6.29487 30.9603 9.6312 32.9064 13.3212 33.6095C13.4639 34.1279 13.7179 34.6091 14.0655 35.0198C14.4131 35.4305 14.846 35.7609 15.3342 35.988V44.3201C15.3576 46.4843 16.2405 48.5508 17.789 50.0659C19.3375 51.5809 21.425 52.4208 23.5934 52.4011H28.1226C30.2514 52.407 32.3014 51.5981 33.8507 50.1408C35.0559 48.9672 35.8677 47.45 36.1745 45.7975L36.3077 44.7781C36.3577 43.5188 36.8973 42.3285 37.8119 41.4597C38.7266 40.5909 39.9444 40.112 41.207 40.1245H45.7362C47.0134 40.1047 48.2464 40.5913 49.1648 41.4775C50.0832 42.3637 50.6121 43.5772 50.6354 44.852V48.7521C49.7118 49.0929 48.9161 49.71 48.3571 50.5191C47.7981 51.3283 47.5031 52.29 47.5123 53.2728ZM52.2636 50.584C52.7964 50.584 53.3172 50.7417 53.7602 51.0372C54.2032 51.3326 54.5485 51.7525 54.7524 52.2438C54.9562 52.7351 55.0096 53.2757 54.9057 53.7973C54.8017 54.3189 54.5452 54.798 54.1684 55.174C53.7917 55.55 53.3117 55.8061 52.7891 55.9098C52.2666 56.0136 51.7249 55.9603 51.2327 55.7568C50.7405 55.5533 50.3197 55.2087 50.0237 54.7665C49.7277 54.3244 49.5697 53.8045 49.5697 53.2728C49.5697 52.9197 49.6394 52.57 49.7748 52.2438C49.9102 51.9176 50.1086 51.6212 50.3587 51.3715C50.6089 51.1219 50.9059 50.9238 51.2327 50.7887C51.5595 50.6536 51.9098 50.584 52.2636 50.584Z" fill="#00AA81"/>
<path d="M13.04 1.56595C13.0004 1.50341 12.9558 1.44413 12.9068 1.38867C12.2657 1.95462 11.7532 2.65069 11.4035 3.43032C11.0538 4.20994 10.875 5.05512 10.879 5.9093H11.101C11.5627 5.87206 12.0073 5.71789 12.3927 5.46135C12.7781 5.20481 13.0916 4.8544 13.3035 4.44325C13.5154 4.03209 13.6187 3.57379 13.6036 3.11167C13.5886 2.64955 13.4557 2.1989 13.2176 1.80232L13.04 1.56595Z" fill="#252B42"/>
<path d="M20.7219 1.566L20.5591 1.7876C20.3122 2.18579 20.1731 2.64117 20.1555 3.10913C20.138 3.5771 20.2425 4.04159 20.4588 4.45711C20.6752 4.87264 20.996 5.22494 21.3898 5.47951C21.7836 5.73409 22.2369 5.8822 22.7053 5.90935H22.9273C22.9188 5.07012 22.7339 4.24202 22.3846 3.47859C22.0353 2.71515 21.5293 2.03338 20.8995 1.47736L20.7219 1.566Z" fill="#252B42"/>
<path d="M18.9309 29.9012H14.8013C14.6326 29.9006 14.4659 29.939 14.3144 30.0133C14.1629 30.0876 14.0307 30.1959 13.9281 30.3296C13.8175 30.4638 13.7368 30.6199 13.6912 30.7876C13.6831 30.8711 13.6831 30.9552 13.6912 31.0387V32.649C13.6766 32.8359 13.6766 33.0236 13.6912 33.2104C14.7456 33.4066 15.8158 33.5055 16.8883 33.5059H17.1992C18.1513 33.5032 19.1016 33.4242 20.041 33.2695C20.0628 33.0633 20.0628 32.8553 20.041 32.649V30.8467C20.0053 30.6836 19.9401 30.5284 19.8486 30.3887C19.7453 30.2406 19.6083 30.1192 19.4487 30.0344C19.2891 29.9497 19.1117 29.904 18.9309 29.9012Z" fill="#252B42"/>
<path d="M49.5697 53.2725C49.5697 53.8043 49.7277 54.3241 50.0237 54.7663C50.3197 55.2085 50.7405 55.5531 51.2327 55.7566C51.7249 55.9601 52.2666 56.0133 52.7891 55.9096C53.3117 55.8059 53.7917 55.5498 54.1684 55.1737C54.5452 54.7977 54.8017 54.3186 54.9057 53.7971C55.0096 53.2755 54.9563 52.7349 54.7524 52.2436C54.5485 51.7523 54.2032 51.3324 53.7602 51.0369C53.3172 50.7415 52.7964 50.5838 52.2636 50.5838C51.9093 50.5818 51.5581 50.65 51.2304 50.7845C50.9027 50.9189 50.6049 51.1169 50.3544 51.3669C50.1038 51.617 49.9055 51.9142 49.7708 52.2413C49.6361 52.5684 49.5678 52.9189 49.5697 53.2725ZM54.4246 53.2725C54.4246 53.7027 54.2966 54.1231 54.0568 54.4806C53.8171 54.838 53.4764 55.1163 53.078 55.2803C52.6795 55.4442 52.2413 55.4863 51.8188 55.4013C51.3964 55.3163 51.0087 55.108 50.705 54.8028C50.4013 54.4976 50.1953 54.1093 50.113 53.6871C50.0307 53.2648 50.0759 52.8277 50.2429 52.4312C50.4098 52.0346 50.691 51.6965 51.0508 51.4596C51.4105 51.2228 51.8326 51.0979 52.2636 51.1008C52.5486 51.1008 52.8308 51.1571 53.094 51.2664C53.3572 51.3757 53.596 51.5359 53.7969 51.7378C53.9978 51.9397 54.1566 52.1792 54.2644 52.4426C54.3721 52.706 54.4265 52.988 54.4246 53.2725Z" fill="#A0FFD5"/>
<path d="M50.0878 53.2726C50.0878 53.7021 50.2154 54.1219 50.4544 54.4791C50.6935 54.8362 51.0333 55.1146 51.4309 55.2789C51.8285 55.4433 52.266 55.4863 52.688 55.4025C53.1101 55.3187 53.4978 55.1119 53.8021 54.8082C54.1064 54.5044 54.3136 54.1175 54.3975 53.6962C54.4815 53.275 54.4384 52.8383 54.2737 52.4415C54.109 52.0447 53.8302 51.7055 53.4724 51.4669C53.1146 51.2282 52.6939 51.1009 52.2636 51.1009C51.9773 51.0989 51.6935 51.1537 51.4286 51.2622C51.1637 51.3706 50.9231 51.5305 50.7206 51.7326C50.5182 51.9346 50.358 52.1748 50.2494 52.4392C50.1407 52.7035 50.0858 52.9868 50.0878 53.2726Z" fill="#252B42"/>
</g>
<defs>
<clipPath id="clip0_16_88">
<rect width="57" height="58" fill="white"/>
</clipPath>
</defs>
</svg>
