<svg width="62" height="62" viewBox="0 0 62 62" fill="none" xmlns="http://www.w3.org/2000/svg">
<g clip-path="url(#clip0_2_66)">
<rect width="62" height="62" fill="white"/>
<path d="M10.5371 27V10.2H14.4491L21.4091 21.624H19.3451L26.1131 10.2H30.0251L30.0731 27H25.7051L25.6571 16.848H26.4011L21.3371 25.344H19.2251L14.0171 16.848H14.9291V27H10.5371Z" fill="#00AA81"/>
<g clip-path="url(#clip1_2_66)">
<path d="M50.5123 55.2728C50.5152 56.1348 50.7535 56.9797 51.2015 57.7167C51.6495 58.4537 52.2903 59.0548 53.055 59.4555C53.8197 59.8562 54.6794 60.0413 55.5416 59.9909C56.4038 59.9404 57.2359 59.6564 57.9484 59.1692C58.661 58.6821 59.227 58.0104 59.5857 57.2262C59.9444 56.442 60.0821 55.5751 59.9841 54.7186C59.8861 53.8621 59.556 53.0485 59.0294 52.3653C58.5028 51.682 57.7996 51.155 56.9953 50.8408V46.8372C56.9719 44.673 56.089 42.6066 54.5405 41.0915C52.992 39.5764 50.9045 38.7365 48.7362 38.7562H44.207C42.0915 38.7656 40.059 39.5791 38.5232 41.0313C37.1982 42.275 36.3369 43.9318 36.081 45.7292L36.007 46.2906C35.9837 47.5641 35.4573 48.7769 34.5426 49.665C33.6278 50.5531 32.3987 51.0447 31.1226 51.0328H26.5341C25.2594 51.0526 24.0286 50.5681 23.1106 49.6851C22.1927 48.8021 21.6621 47.5923 21.6349 46.3201V37.8846C22.4872 37.4082 23.1193 36.6183 23.3963 35.6833C27.1781 35.0646 30.62 33.1342 33.1162 30.232C35.6125 27.3297 37.003 23.6416 37.0431 19.8168V13.9075C37.0214 11.519 36.1948 9.20742 34.6966 7.3449C33.1984 5.48238 31.1157 4.17737 28.784 3.64004C28.4982 3.13677 28.0824 2.71917 27.58 2.43076C27.0776 2.14235 26.5068 1.99367 25.9273 2.00021C25.4775 2.0002 25.0327 2.09494 24.6221 2.27823C24.2114 2.46152 23.8442 2.72924 23.5443 3.06388L23.7663 3.56618L23.8995 3.3889C24.5294 3.94492 25.0353 4.62669 25.3846 5.39013C25.7339 6.15356 25.9188 6.98166 25.9273 7.82089V7.90953H25.7053L25.9273 8.4266C26.438 8.42665 26.9416 8.30625 27.3969 8.07519C27.8521 7.84413 28.2463 7.50896 28.5471 7.097C30.0127 7.56674 31.295 8.48089 32.2156 9.71218C33.1361 10.9435 33.6492 12.4306 33.6832 13.9666V19.8759C33.617 22.88 32.5149 25.7694 30.5628 28.0569C28.6107 30.3444 25.928 31.8901 22.967 32.4332H22.8634C22.9549 32.5729 23.0201 32.7281 23.0558 32.8912V34.6492C23.0777 34.8555 23.0777 35.0634 23.0558 35.2697C22.1164 35.4244 21.1661 35.5034 20.214 35.5061H19.9031C18.8306 35.5057 17.7604 35.4068 16.7061 35.2106C16.6914 35.0238 16.6914 34.8361 16.7061 34.6492V33.0242C16.6979 32.9406 16.6979 32.8565 16.7061 32.773C16.7516 32.6053 16.8323 32.4492 16.9429 32.315H16.8097C13.9152 31.7256 11.3096 30.1663 9.42509 27.8957C7.54057 25.6251 6.49037 22.7798 6.44871 19.8316V13.9223C6.47063 12.4348 6.94931 10.9898 7.82014 9.78246C8.69097 8.57512 9.91199 7.66357 11.3184 7.17086C11.6179 7.56564 12.0049 7.8858 12.4492 8.10623C12.8935 8.32666 13.3829 8.44138 13.879 8.44137L14.101 7.90953H13.879C13.8875 7.0703 14.0724 6.2422 14.4217 5.47877C14.771 4.71533 15.2769 4.03356 15.9068 3.47754C15.9558 3.53299 16.0004 3.59228 16.04 3.65482L16.3212 3.06388C16.0123 2.72473 15.635 2.45462 15.2141 2.2713C14.7932 2.08798 14.3382 1.99559 13.879 2.00021C13.2839 1.99745 12.6998 2.16054 12.1925 2.47113C11.6852 2.78172 11.2748 3.22748 11.0075 3.75823C8.73588 4.34779 6.72145 5.66645 5.2745 7.51109C3.82754 9.35572 3.02835 11.624 3 13.9666L3 19.8759C3.07916 23.6246 4.44535 27.2325 6.87011 30.0964C9.29487 32.9603 12.6312 34.9064 16.3212 35.6095C16.4639 36.1279 16.7179 36.6091 17.0655 37.0198C17.4131 37.4305 17.846 37.7609 18.3342 37.988V46.3201C18.3576 48.4843 19.2405 50.5508 20.789 52.0659C22.3375 53.5809 24.425 54.4208 26.5934 54.4011H31.1226C33.2514 54.407 35.3014 53.5981 36.8507 52.1408C38.0559 50.9672 38.8677 49.45 39.1745 47.7975L39.3077 46.7781C39.3577 45.5188 39.8973 44.3285 40.8119 43.4597C41.7266 42.5909 42.9444 42.112 44.207 42.1245H48.7362C50.0134 42.1047 51.2464 42.5913 52.1648 43.4775C53.0832 44.3637 53.6121 45.5772 53.6354 46.852V50.7521C52.7118 51.0929 51.9161 51.71 51.3571 52.5191C50.7981 53.3283 50.5031 54.29 50.5123 55.2728ZM55.2636 52.584C55.7964 52.584 56.3172 52.7417 56.7602 53.0371C57.2032 53.3326 57.5485 53.7525 57.7524 54.2438C57.9562 54.7351 58.0096 55.2757 57.9057 55.7973C57.8017 56.3189 57.5452 56.798 57.1684 57.174C56.7917 57.55 56.3117 57.8061 55.7891 57.9098C55.2666 58.0136 54.7249 57.9603 54.2327 57.7568C53.7405 57.5533 53.3197 57.2087 53.0237 56.7665C52.7277 56.3244 52.5697 55.8045 52.5697 55.2728C52.5697 54.9197 52.6394 54.57 52.7748 54.2438C52.9102 53.9176 53.1086 53.6212 53.3587 53.3715C53.6089 53.1219 53.9059 52.9238 54.2327 52.7887C54.5595 52.6536 54.9098 52.584 55.2636 52.584Z" fill="#00AA81"/>
<path d="M16.04 3.56595C16.0004 3.50341 15.9558 3.44413 15.9068 3.38867C15.2657 3.95462 14.7532 4.65069 14.4035 5.43032C14.0538 6.20994 13.875 7.05512 13.879 7.9093H14.101C14.5627 7.87206 15.0073 7.71788 15.3927 7.46135C15.7781 7.20481 16.0916 6.8544 16.3035 6.44325C16.5154 6.03209 16.6187 5.57379 16.6036 5.11167C16.5886 4.64955 16.4557 4.1989 16.2176 3.80232L16.04 3.56595Z" fill="#252B42"/>
<path d="M23.7219 3.566L23.5591 3.7876C23.3122 4.18579 23.1731 4.64117 23.1555 5.10913C23.138 5.5771 23.2425 6.04159 23.4588 6.45711C23.6752 6.87264 23.996 7.22494 24.3898 7.47951C24.7836 7.73409 25.2369 7.8822 25.7053 7.90935H25.9273C25.9188 7.07012 25.7339 6.24202 25.3846 5.47859C25.0353 4.71515 24.5293 4.03338 23.8995 3.47736L23.7219 3.566Z" fill="#252B42"/>
<path d="M21.9309 31.9012H17.8013C17.6326 31.9006 17.4659 31.939 17.3144 32.0133C17.1629 32.0876 17.0307 32.1959 16.9281 32.3296C16.8175 32.4638 16.7368 32.6199 16.6912 32.7876C16.6831 32.8711 16.6831 32.9552 16.6912 33.0387V34.649C16.6766 34.8359 16.6766 35.0236 16.6912 35.2104C17.7456 35.4066 18.8158 35.5055 19.8883 35.5059H20.1992C21.1513 35.5032 22.1016 35.4242 23.041 35.2695C23.0628 35.0633 23.0628 34.8553 23.041 34.649V32.8467C23.0053 32.6836 22.9401 32.5284 22.8486 32.3887C22.7453 32.2406 22.6083 32.1192 22.4487 32.0344C22.2891 31.9497 22.1117 31.904 21.9309 31.9012Z" fill="#252B42"/>
<path d="M52.5697 55.2725C52.5697 55.8043 52.7277 56.3241 53.0237 56.7663C53.3197 57.2085 53.7405 57.5531 54.2327 57.7566C54.7249 57.9601 55.2666 58.0133 55.7891 57.9096C56.3117 57.8059 56.7917 57.5498 57.1684 57.1738C57.5452 56.7977 57.8017 56.3186 57.9057 55.7971C58.0096 55.2755 57.9563 54.7349 57.7524 54.2436C57.5485 53.7523 57.2032 53.3324 56.7602 53.0369C56.3172 52.7415 55.7964 52.5838 55.2636 52.5838C54.9093 52.5818 54.5581 52.65 54.2304 52.7845C53.9027 52.9189 53.6049 53.1169 53.3544 53.3669C53.1038 53.617 52.9055 53.9142 52.7708 54.2413C52.6361 54.5684 52.5678 54.9189 52.5697 55.2725ZM57.4246 55.2725C57.4246 55.7027 57.2966 56.1231 57.0568 56.4806C56.8171 56.838 56.4764 57.1163 56.078 57.2803C55.6795 57.4442 55.2413 57.4863 54.8188 57.4013C54.3964 57.3163 54.0087 57.108 53.705 56.8028C53.4013 56.4976 53.1953 56.1093 53.113 55.6871C53.0307 55.2648 53.0759 54.8277 53.2429 54.4312C53.4098 54.0346 53.691 53.6965 54.0508 53.4596C54.4105 53.2228 54.8326 53.0979 55.2636 53.1008C55.5486 53.1008 55.8308 53.1571 56.094 53.2664C56.3572 53.3757 56.596 53.5359 56.7969 53.7378C56.9978 53.9397 57.1566 54.1792 57.2644 54.4426C57.3721 54.706 57.4265 54.988 57.4246 55.2725Z" fill="#A0FFD5"/>
<path d="M53.0878 55.2726C53.0878 55.7021 53.2154 56.1219 53.4544 56.4791C53.6935 56.8362 54.0333 57.1146 54.4309 57.2789C54.8285 57.4433 55.266 57.4863 55.688 57.4025C56.1101 57.3187 56.4978 57.1119 56.8021 56.8082C57.1064 56.5044 57.3136 56.1175 57.3975 55.6962C57.4815 55.275 57.4384 54.8383 57.2737 54.4415C57.109 54.0447 56.8302 53.7055 56.4724 53.4669C56.1146 53.2282 55.6939 53.1009 55.2636 53.1009C54.9773 53.0989 54.6935 53.1537 54.4286 53.2622C54.1637 53.3706 53.9231 53.5305 53.7206 53.7326C53.5182 53.9346 53.358 54.1748 53.2494 54.4392C53.1407 54.7035 53.0858 54.9868 53.0878 55.2726Z" fill="#252B42"/>
</g>
</g>
<defs>
<clipPath id="clip0_2_66">
<rect width="62" height="62" fill="white"/>
</clipPath>
<clipPath id="clip1_2_66">
<rect width="57" height="58" fill="white" transform="translate(3 2)"/>
</clipPath>
</defs>
</svg>
