<svg width="176" height="60" viewBox="0 0 176 60" fill="none" xmlns="http://www.w3.org/2000/svg">
<path d="M41.048 16.704H48.848V20.256H41.048V16.704ZM41.384 23.328H50.168V27H36.68V10.2H49.856V13.872H41.384V23.328ZM52.905 27V10.2H60.849C62.705 10.2 64.337 10.544 65.745 11.232C67.153 11.92 68.249 12.888 69.033 14.136C69.833 15.384 70.233 16.872 70.233 18.6C70.233 20.312 69.833 21.8 69.033 23.064C68.249 24.312 67.153 25.28 65.745 25.968C64.337 26.656 62.705 27 60.849 27H52.905ZM57.657 23.208H60.657C61.617 23.208 62.449 23.032 63.153 22.68C63.873 22.312 64.433 21.784 64.833 21.096C65.233 20.392 65.433 19.56 65.433 18.6C65.433 17.624 65.233 16.792 64.833 16.104C64.433 15.416 63.873 14.896 63.153 14.544C62.449 14.176 61.617 13.992 60.657 13.992H57.657V23.208Z" fill="#00AA81"/>
<path d="M72.8331 27V10.2H80.5131C82.0491 10.2 83.3691 10.448 84.4731 10.944C85.5931 11.44 86.4571 12.16 87.0651 13.104C87.6731 14.032 87.9771 15.136 87.9771 16.416C87.9771 17.68 87.6731 18.776 87.0651 19.704C86.4571 20.632 85.5931 21.352 84.4731 21.864C83.3691 22.36 82.0491 22.608 80.5131 22.608H75.4731L77.5851 20.544V27H72.8331ZM77.5851 21.048L75.4731 18.864H80.2251C81.2171 18.864 81.9531 18.648 82.4331 18.216C82.9291 17.784 83.1771 17.184 83.1771 16.416C83.1771 15.632 82.9291 15.024 82.4331 14.592C81.9531 14.16 81.2171 13.944 80.2251 13.944H75.4731L77.5851 11.76V21.048ZM90.3941 27V10.2H98.0741C99.6101 10.2 100.93 10.448 102.034 10.944C103.154 11.44 104.018 12.16 104.626 13.104C105.234 14.032 105.538 15.136 105.538 16.416C105.538 17.68 105.234 18.776 104.626 19.704C104.018 20.616 103.154 21.32 102.034 21.816C100.93 22.296 99.6101 22.536 98.0741 22.536H93.0341L95.1461 20.544V27H90.3941ZM100.786 27L96.6101 20.88H101.674L105.874 27H100.786ZM95.1461 21.048L93.0341 18.864H97.7861C98.7781 18.864 99.5141 18.648 99.9941 18.216C100.49 17.784 100.738 17.184 100.738 16.416C100.738 15.632 100.49 15.024 99.9941 14.592C99.5141 14.16 98.7781 13.944 97.7861 13.944H93.0341L95.1461 11.76V21.048ZM116.732 27.336C115.388 27.336 114.148 27.12 113.012 26.688C111.876 26.256 110.884 25.648 110.036 24.864C109.204 24.064 108.556 23.136 108.092 22.08C107.628 21.024 107.396 19.864 107.396 18.6C107.396 17.336 107.628 16.176 108.092 15.12C108.556 14.064 109.204 13.144 110.036 12.36C110.884 11.56 111.876 10.944 113.012 10.512C114.148 10.08 115.388 9.864 116.732 9.864C118.092 9.864 119.332 10.08 120.452 10.512C121.588 10.944 122.572 11.56 123.404 12.36C124.236 13.144 124.884 14.064 125.348 15.12C125.828 16.176 126.068 17.336 126.068 18.6C126.068 19.864 125.828 21.032 125.348 22.104C124.884 23.16 124.236 24.08 123.404 24.864C122.572 25.648 121.588 26.256 120.452 26.688C119.332 27.12 118.092 27.336 116.732 27.336ZM116.732 23.4C117.372 23.4 117.964 23.288 118.508 23.064C119.068 22.84 119.548 22.52 119.948 22.104C120.364 21.672 120.684 21.16 120.908 20.568C121.148 19.976 121.268 19.32 121.268 18.6C121.268 17.864 121.148 17.208 120.908 16.632C120.684 16.04 120.364 15.536 119.948 15.12C119.548 14.688 119.068 14.36 118.508 14.136C117.964 13.912 117.372 13.8 116.732 13.8C116.092 13.8 115.492 13.912 114.932 14.136C114.388 14.36 113.908 14.688 113.492 15.12C113.092 15.536 112.772 16.04 112.532 16.632C112.308 17.208 112.196 17.864 112.196 18.6C112.196 19.32 112.308 19.976 112.532 20.568C112.772 21.16 113.092 21.672 113.492 22.104C113.908 22.52 114.388 22.84 114.932 23.064C115.492 23.288 116.092 23.4 116.732 23.4ZM128.657 27V10.2H132.569L141.833 21.384H139.985V10.2H144.641V27H140.729L131.465 15.816H133.313V27H128.657ZM148.092 27V10.2H152.844V27H148.092ZM154.597 27L161.941 16.8L161.917 20.184L154.861 10.2H160.213L164.725 16.704L162.445 16.728L166.885 10.2H172.021L164.965 19.992V16.632L172.405 27H166.933L162.349 20.16H164.533L160.021 27H154.597Z" fill="#252B42"/>
<path d="M7.68 27V10.2H11.592L18.552 21.624H16.488L23.256 10.2H27.168L27.216 27H22.848L22.8 16.848H23.544L18.48 25.344H16.368L11.16 16.848H12.072V27H7.68Z" fill="#00AA81"/>
<g clip-path="url(#clip0_50_85)">
<path d="M47.5123 55.2728C47.5152 56.1348 47.7535 56.9797 48.2015 57.7167C48.6495 58.4537 49.2903 59.0548 50.055 59.4555C50.8197 59.8562 51.6794 60.0413 52.5416 59.9909C53.4038 59.9404 54.2359 59.6564 54.9484 59.1692C55.661 58.6821 56.227 58.0104 56.5857 57.2262C56.9444 56.442 57.0821 55.5751 56.9841 54.7186C56.8861 53.8621 56.556 53.0485 56.0294 52.3653C55.5028 51.682 54.7996 51.155 53.9953 50.8408V46.8372C53.9719 44.673 53.089 42.6066 51.5405 41.0915C49.9921 39.5764 47.9045 38.7365 45.7362 38.7562H41.207C39.0915 38.7656 37.059 39.5791 35.5232 41.0313C34.1982 42.275 33.3369 43.9318 33.081 45.7292L33.007 46.2906C32.9837 47.5641 32.4573 48.7769 31.5426 49.665C30.6278 50.5531 29.3987 51.0447 28.1226 51.0328H23.5341C22.2594 51.0526 21.0286 50.5681 20.1106 49.6851C19.1927 48.8021 18.6621 47.5923 18.6349 46.3201V37.8846C19.4872 37.4082 20.1193 36.6183 20.3963 35.6833C24.1781 35.0646 27.62 33.1342 30.1162 30.232C32.6125 27.3297 34.003 23.6416 34.0431 19.8168V13.9075C34.0214 11.519 33.1948 9.20742 31.6966 7.3449C30.1984 5.48238 28.1157 4.17737 25.784 3.64004C25.4982 3.13677 25.0824 2.71917 24.58 2.43076C24.0776 2.14235 23.5068 1.99367 22.9273 2.00021C22.4775 2.0002 22.0327 2.09494 21.6221 2.27823C21.2114 2.46152 20.8442 2.72924 20.5443 3.06388L20.7663 3.56618L20.8995 3.3889C21.5294 3.94492 22.0353 4.62669 22.3846 5.39013C22.7339 6.15356 22.9188 6.98166 22.9273 7.82089V7.90953H22.7053L22.9273 8.4266C23.438 8.42665 23.9416 8.30625 24.3969 8.07519C24.8521 7.84413 25.2463 7.50896 25.5471 7.097C27.0127 7.56674 28.295 8.48089 29.2156 9.71218C30.1362 10.9435 30.6492 12.4306 30.6832 13.9666V19.8759C30.617 22.88 29.5149 25.7694 27.5628 28.0569C25.6107 30.3444 22.928 31.8901 19.967 32.4332H19.8634C19.9549 32.5729 20.0201 32.7281 20.0558 32.8912V34.6492C20.0777 34.8555 20.0777 35.0634 20.0558 35.2697C19.1164 35.4244 18.1661 35.5034 17.214 35.5061H16.9031C15.8306 35.5057 14.7604 35.4068 13.7061 35.2106C13.6914 35.0238 13.6914 34.8361 13.7061 34.6492V33.0242C13.6979 32.9406 13.6979 32.8565 13.7061 32.773C13.7516 32.6053 13.8323 32.4492 13.9429 32.315H13.8097C10.9152 31.7256 8.30962 30.1663 6.42509 27.8957C4.54057 25.6251 3.49037 22.7798 3.44871 19.8316V13.9223C3.47063 12.4348 3.94931 10.9898 4.82014 9.78246C5.69097 8.57512 6.91199 7.66357 8.31836 7.17086C8.61787 7.56564 9.00493 7.8858 9.4492 8.10623C9.89347 8.32666 10.3829 8.44138 10.879 8.44137L11.101 7.90953H10.879C10.8875 7.0703 11.0724 6.2422 11.4217 5.47877C11.771 4.71533 12.2769 4.03356 12.9068 3.47754C12.9558 3.53299 13.0004 3.59228 13.04 3.65482L13.3212 3.06388C13.0123 2.72473 12.635 2.45462 12.2141 2.2713C11.7932 2.08798 11.3382 1.99559 10.879 2.00021C10.2839 1.99745 9.69977 2.16054 9.19247 2.47113C8.68516 2.78172 8.27479 3.22748 8.00753 3.75823C5.73588 4.34779 3.72145 5.66645 2.2745 7.51109C0.827545 9.35572 0.0283465 11.624 0 13.9666L0 19.8759C0.0791621 23.6246 1.44535 27.2325 3.87011 30.0964C6.29487 32.9603 9.6312 34.9064 13.3212 35.6095C13.4639 36.1279 13.7179 36.6091 14.0655 37.0198C14.4131 37.4305 14.846 37.7609 15.3342 37.988V46.3201C15.3576 48.4843 16.2405 50.5508 17.789 52.0659C19.3375 53.5809 21.425 54.4208 23.5934 54.4011H28.1226C30.2514 54.407 32.3014 53.5981 33.8507 52.1408C35.0559 50.9672 35.8677 49.45 36.1745 47.7975L36.3077 46.7781C36.3577 45.5188 36.8973 44.3285 37.8119 43.4597C38.7266 42.5909 39.9444 42.112 41.207 42.1245H45.7362C47.0134 42.1047 48.2464 42.5913 49.1648 43.4775C50.0832 44.3637 50.6121 45.5772 50.6354 46.852V50.7521C49.7118 51.0929 48.9161 51.71 48.3571 52.5191C47.7981 53.3283 47.5031 54.29 47.5123 55.2728ZM52.2636 52.584C52.7964 52.584 53.3172 52.7417 53.7602 53.0372C54.2032 53.3326 54.5485 53.7525 54.7524 54.2438C54.9562 54.7351 55.0096 55.2757 54.9057 55.7973C54.8017 56.3189 54.5452 56.798 54.1684 57.174C53.7917 57.55 53.3117 57.8061 52.7891 57.9098C52.2666 58.0136 51.7249 57.9603 51.2327 57.7568C50.7405 57.5533 50.3197 57.2087 50.0237 56.7665C49.7277 56.3244 49.5697 55.8045 49.5697 55.2728C49.5697 54.9197 49.6394 54.57 49.7748 54.2438C49.9102 53.9176 50.1086 53.6212 50.3587 53.3715C50.6089 53.1219 50.9059 52.9238 51.2327 52.7887C51.5595 52.6536 51.9098 52.584 52.2636 52.584Z" fill="#00AA81"/>
<path d="M13.04 3.56595C13.0004 3.50341 12.9558 3.44413 12.9068 3.38867C12.2657 3.95462 11.7532 4.65069 11.4035 5.43032C11.0538 6.20994 10.875 7.05512 10.879 7.9093H11.101C11.5627 7.87206 12.0073 7.71789 12.3927 7.46135C12.7781 7.20481 13.0916 6.8544 13.3035 6.44325C13.5154 6.03209 13.6187 5.57379 13.6036 5.11167C13.5886 4.64955 13.4557 4.1989 13.2176 3.80232L13.04 3.56595Z" fill="#252B42"/>
<path d="M20.7219 3.566L20.5591 3.7876C20.3122 4.18579 20.1731 4.64117 20.1555 5.10913C20.138 5.5771 20.2425 6.04159 20.4588 6.45711C20.6752 6.87264 20.996 7.22494 21.3898 7.47951C21.7836 7.73409 22.2369 7.8822 22.7053 7.90935H22.9273C22.9188 7.07012 22.7339 6.24202 22.3846 5.47859C22.0353 4.71515 21.5293 4.03338 20.8995 3.47736L20.7219 3.566Z" fill="#252B42"/>
<path d="M18.9309 31.9012H14.8013C14.6326 31.9006 14.4659 31.939 14.3144 32.0133C14.1629 32.0876 14.0307 32.1959 13.9281 32.3296C13.8175 32.4638 13.7368 32.6199 13.6912 32.7876C13.6831 32.8711 13.6831 32.9552 13.6912 33.0387V34.649C13.6766 34.8359 13.6766 35.0236 13.6912 35.2104C14.7456 35.4066 15.8158 35.5055 16.8883 35.5059H17.1992C18.1513 35.5032 19.1016 35.4242 20.041 35.2695C20.0628 35.0633 20.0628 34.8553 20.041 34.649V32.8467C20.0053 32.6836 19.9401 32.5284 19.8486 32.3887C19.7453 32.2406 19.6083 32.1192 19.4487 32.0344C19.2891 31.9497 19.1117 31.904 18.9309 31.9012Z" fill="#252B42"/>
<path d="M49.5697 55.2725C49.5697 55.8043 49.7277 56.3241 50.0237 56.7663C50.3197 57.2085 50.7405 57.5531 51.2327 57.7566C51.7249 57.9601 52.2666 58.0133 52.7891 57.9096C53.3117 57.8059 53.7917 57.5498 54.1684 57.1737C54.5452 56.7977 54.8017 56.3186 54.9057 55.7971C55.0096 55.2755 54.9563 54.7349 54.7524 54.2436C54.5485 53.7523 54.2032 53.3324 53.7602 53.0369C53.3172 52.7415 52.7964 52.5838 52.2636 52.5838C51.9093 52.5818 51.5581 52.65 51.2304 52.7845C50.9027 52.9189 50.6049 53.1169 50.3544 53.3669C50.1038 53.617 49.9055 53.9142 49.7708 54.2413C49.6361 54.5684 49.5678 54.9189 49.5697 55.2725ZM54.4246 55.2725C54.4246 55.7027 54.2966 56.1231 54.0568 56.4806C53.8171 56.838 53.4764 57.1163 53.078 57.2803C52.6795 57.4442 52.2413 57.4863 51.8188 57.4013C51.3964 57.3163 51.0087 57.108 50.705 56.8028C50.4013 56.4976 50.1953 56.1093 50.113 55.6871C50.0307 55.2648 50.0759 54.8277 50.2429 54.4312C50.4098 54.0346 50.691 53.6965 51.0508 53.4596C51.4105 53.2228 51.8326 53.0979 52.2636 53.1008C52.5486 53.1008 52.8308 53.1571 53.094 53.2664C53.3572 53.3757 53.596 53.5359 53.7969 53.7378C53.9978 53.9397 54.1566 54.1792 54.2644 54.4426C54.3721 54.706 54.4265 54.988 54.4246 55.2725Z" fill="#A0FFD5"/>
<path d="M50.0878 55.2726C50.0878 55.7021 50.2154 56.1219 50.4544 56.4791C50.6935 56.8362 51.0333 57.1146 51.4309 57.2789C51.8285 57.4433 52.266 57.4863 52.688 57.4025C53.1101 57.3187 53.4978 57.1119 53.8021 56.8082C54.1064 56.5044 54.3136 56.1175 54.3975 55.6962C54.4815 55.275 54.4384 54.8383 54.2737 54.4415C54.109 54.0447 53.8302 53.7055 53.4724 53.4669C53.1146 53.2282 52.6939 53.1009 52.2636 53.1009C51.9773 53.0989 51.6935 53.1537 51.4286 53.2622C51.1637 53.3706 50.9231 53.5305 50.7206 53.7326C50.5182 53.9346 50.358 54.1748 50.2494 54.4392C50.1407 54.7035 50.0858 54.9868 50.0878 55.2726Z" fill="#252B42"/>
</g>
<defs>
<clipPath id="clip0_50_85">
<rect width="57" height="58" fill="white" transform="translate(0 2)"/>
</clipPath>
</defs>
</svg>
