<svg width="137" height="19" viewBox="0 0 137 19" fill="none" xmlns="http://www.w3.org/2000/svg">
<path d="M5.048 7.704H12.848V11.256H5.048V7.704ZM5.384 14.328H14.168V18H0.68V1.2H13.856V4.872H5.384V14.328ZM16.905 18V1.2H24.849C26.705 1.2 28.337 1.544 29.745 2.232C31.153 2.92 32.249 3.888 33.033 5.136C33.833 6.384 34.233 7.872 34.233 9.6C34.233 11.312 33.833 12.8 33.033 14.064C32.249 15.312 31.153 16.28 29.745 16.968C28.337 17.656 26.705 18 24.849 18H16.905ZM21.657 14.208H24.657C25.617 14.208 26.449 14.032 27.153 13.68C27.873 13.312 28.433 12.784 28.833 12.096C29.233 11.392 29.433 10.56 29.433 9.6C29.433 8.624 29.233 7.792 28.833 7.104C28.433 6.416 27.873 5.896 27.153 5.544C26.449 5.176 25.617 4.992 24.657 4.992H21.657V14.208Z" fill="#00AA81"/>
<path d="M36.8331 18V1.2H44.5131C46.0491 1.2 47.3691 1.448 48.4731 1.944C49.5931 2.44 50.4571 3.16 51.0651 4.104C51.6731 5.032 51.9771 6.136 51.9771 7.416C51.9771 8.68 51.6731 9.776 51.0651 10.704C50.4571 11.632 49.5931 12.352 48.4731 12.864C47.3691 13.36 46.0491 13.608 44.5131 13.608H39.4731L41.5851 11.544V18H36.8331ZM41.5851 12.048L39.4731 9.864H44.2251C45.2171 9.864 45.9531 9.648 46.4331 9.216C46.9291 8.784 47.1771 8.184 47.1771 7.416C47.1771 6.632 46.9291 6.024 46.4331 5.592C45.9531 5.16 45.2171 4.944 44.2251 4.944H39.4731L41.5851 2.76V12.048ZM54.3941 18V1.2H62.0741C63.6101 1.2 64.9301 1.448 66.0341 1.944C67.1541 2.44 68.0181 3.16 68.6261 4.104C69.2341 5.032 69.5381 6.136 69.5381 7.416C69.5381 8.68 69.2341 9.776 68.6261 10.704C68.0181 11.616 67.1541 12.32 66.0341 12.816C64.9301 13.296 63.6101 13.536 62.0741 13.536H57.0341L59.1461 11.544V18H54.3941ZM64.7861 18L60.6101 11.88H65.6741L69.8741 18H64.7861ZM59.1461 12.048L57.0341 9.864H61.7861C62.7781 9.864 63.5141 9.648 63.9941 9.216C64.4901 8.784 64.7381 8.184 64.7381 7.416C64.7381 6.632 64.4901 6.024 63.9941 5.592C63.5141 5.16 62.7781 4.944 61.7861 4.944H57.0341L59.1461 2.76V12.048ZM80.7317 18.336C79.3877 18.336 78.1477 18.12 77.0117 17.688C75.8757 17.256 74.8837 16.648 74.0357 15.864C73.2037 15.064 72.5557 14.136 72.0917 13.08C71.6277 12.024 71.3957 10.864 71.3957 9.6C71.3957 8.336 71.6277 7.176 72.0917 6.12C72.5557 5.064 73.2037 4.144 74.0357 3.36C74.8837 2.56 75.8757 1.944 77.0117 1.512C78.1477 1.08 79.3877 0.863999 80.7317 0.863999C82.0917 0.863999 83.3317 1.08 84.4517 1.512C85.5877 1.944 86.5717 2.56 87.4037 3.36C88.2357 4.144 88.8837 5.064 89.3477 6.12C89.8277 7.176 90.0677 8.336 90.0677 9.6C90.0677 10.864 89.8277 12.032 89.3477 13.104C88.8837 14.16 88.2357 15.08 87.4037 15.864C86.5717 16.648 85.5877 17.256 84.4517 17.688C83.3317 18.12 82.0917 18.336 80.7317 18.336ZM80.7317 14.4C81.3717 14.4 81.9637 14.288 82.5077 14.064C83.0677 13.84 83.5477 13.52 83.9477 13.104C84.3637 12.672 84.6837 12.16 84.9077 11.568C85.1477 10.976 85.2677 10.32 85.2677 9.6C85.2677 8.864 85.1477 8.208 84.9077 7.632C84.6837 7.04 84.3637 6.536 83.9477 6.12C83.5477 5.688 83.0677 5.36 82.5077 5.136C81.9637 4.912 81.3717 4.8 80.7317 4.8C80.0917 4.8 79.4917 4.912 78.9317 5.136C78.3877 5.36 77.9077 5.688 77.4917 6.12C77.0917 6.536 76.7717 7.04 76.5317 7.632C76.3077 8.208 76.1957 8.864 76.1957 9.6C76.1957 10.32 76.3077 10.976 76.5317 11.568C76.7717 12.16 77.0917 12.672 77.4917 13.104C77.9077 13.52 78.3877 13.84 78.9317 14.064C79.4917 14.288 80.0917 14.4 80.7317 14.4ZM92.6566 18V1.2H96.5686L105.833 12.384H103.985V1.2H108.641V18H104.729L95.4646 6.816H97.3126V18H92.6566ZM112.092 18V1.2H116.844V18H112.092ZM118.597 18L125.941 7.8L125.917 11.184L118.861 1.2H124.213L128.725 7.704L126.445 7.728L130.885 1.2H136.021L128.965 10.992V7.632L136.405 18H130.933L126.349 11.16H128.533L124.021 18H118.597Z" fill="#252B42"/>
</svg>
