<svg width="283" height="283" viewBox="0 0 283 283" fill="none" xmlns="http://www.w3.org/2000/svg">
<rect width="282" height="282" transform="translate(0.126434 0.174969)" fill="white"/>
<path d="M16.1264 16.175H24.7471V24.7957H16.1264V16.175ZM24.7471 16.175H33.3678V24.7957H24.7471V16.175ZM33.3678 16.175H41.9885V24.7957H33.3678V16.175ZM41.9885 16.175H50.6092V24.7957H41.9885V16.175ZM50.6092 16.175H59.2299V24.7957H50.6092V16.175ZM59.2299 16.175H67.8506V24.7957H59.2299V16.175ZM67.8506 16.175H76.4713V24.7957H67.8506V16.175ZM119.575 16.175H128.195V24.7957H119.575V16.175ZM136.816 16.175H145.437V24.7957H136.816V16.175ZM171.299 16.175H179.92V24.7957H171.299V16.175ZM179.92 16.175H188.54V24.7957H179.92V16.175ZM205.782 16.175H214.402V24.7957H205.782V16.175ZM214.402 16.175H223.023V24.7957H214.402V16.175ZM223.023 16.175H231.644V24.7957H223.023V16.175ZM231.644 16.175H240.264V24.7957H231.644V16.175ZM240.264 16.175H248.885V24.7957H240.264V16.175ZM248.885 16.175H257.506V24.7957H248.885V16.175ZM257.506 16.175H266.126V24.7957H257.506V16.175ZM16.1264 24.7957H24.7471V33.4163H16.1264V24.7957ZM67.8506 24.7957H76.4713V33.4163H67.8506V24.7957ZM102.333 24.7957H110.954V33.4163H102.333V24.7957ZM136.816 24.7957H145.437V33.4163H136.816V24.7957ZM154.057 24.7957H162.678V33.4163H154.057V24.7957ZM162.678 24.7957H171.299V33.4163H162.678V24.7957ZM188.54 24.7957H197.161V33.4163H188.54V24.7957ZM205.782 24.7957H214.402V33.4163H205.782V24.7957ZM257.506 24.7957H266.126V33.4163H257.506V24.7957ZM16.1264 33.4163H24.7471V42.037H16.1264V33.4163ZM33.3678 33.4163H41.9885V42.037H33.3678V33.4163ZM41.9885 33.4163H50.6092V42.037H41.9885V33.4163ZM50.6092 33.4163H59.2299V42.037H50.6092V33.4163ZM67.8506 33.4163H76.4713V42.037H67.8506V33.4163ZM85.092 33.4163H93.7126V42.037H85.092V33.4163ZM93.7126 33.4163H102.333V42.037H93.7126V33.4163ZM119.575 33.4163H128.195V42.037H119.575V33.4163ZM136.816 33.4163H145.437V42.037H136.816V33.4163ZM154.057 33.4163H162.678V42.037H154.057V33.4163ZM162.678 33.4163H171.299V42.037H162.678V33.4163ZM171.299 33.4163H179.92V42.037H171.299V33.4163ZM179.92 33.4163H188.54V42.037H179.92V33.4163ZM188.54 33.4163H197.161V42.037H188.54V33.4163ZM205.782 33.4163H214.402V42.037H205.782V33.4163ZM223.023 33.4163H231.644V42.037H223.023V33.4163ZM231.644 33.4163H240.264V42.037H231.644V33.4163ZM240.264 33.4163H248.885V42.037H240.264V33.4163ZM257.506 33.4163H266.126V42.037H257.506V33.4163ZM16.1264 42.037H24.7471V50.6577H16.1264V42.037ZM33.3678 42.037H41.9885V50.6577H33.3678V42.037ZM41.9885 42.037H50.6092V50.6577H41.9885V42.037ZM50.6092 42.037H59.2299V50.6577H50.6092V42.037ZM67.8506 42.037H76.4713V50.6577H67.8506V42.037ZM93.7126 42.037H102.333V50.6577H93.7126V42.037ZM128.195 42.037H136.816V50.6577H128.195V42.037ZM136.816 42.037H145.437V50.6577H136.816V42.037ZM145.437 42.037H154.057V50.6577H145.437V42.037ZM154.057 42.037H162.678V50.6577H154.057V42.037ZM179.92 42.037H188.54V50.6577H179.92V42.037ZM188.54 42.037H197.161V50.6577H188.54V42.037ZM205.782 42.037H214.402V50.6577H205.782V42.037ZM223.023 42.037H231.644V50.6577H223.023V42.037ZM231.644 42.037H240.264V50.6577H231.644V42.037ZM240.264 42.037H248.885V50.6577H240.264V42.037ZM257.506 42.037H266.126V50.6577H257.506V42.037ZM16.1264 50.6577H24.7471V59.2784H16.1264V50.6577ZM33.3678 50.6577H41.9885V59.2784H33.3678V50.6577ZM41.9885 50.6577H50.6092V59.2784H41.9885V50.6577ZM50.6092 50.6577H59.2299V59.2784H50.6092V50.6577ZM67.8506 50.6577H76.4713V59.2784H67.8506V50.6577ZM85.092 50.6577H93.7126V59.2784H85.092V50.6577ZM93.7126 50.6577H102.333V59.2784H93.7126V50.6577ZM102.333 50.6577H110.954V59.2784H102.333V50.6577ZM119.575 50.6577H128.195V59.2784H119.575V50.6577ZM145.437 50.6577H154.057V59.2784H145.437V50.6577ZM154.057 50.6577H162.678V59.2784H154.057V50.6577ZM171.299 50.6577H179.92V59.2784H171.299V50.6577ZM205.782 50.6577H214.402V59.2784H205.782V50.6577ZM223.023 50.6577H231.644V59.2784H223.023V50.6577ZM231.644 50.6577H240.264V59.2784H231.644V50.6577ZM240.264 50.6577H248.885V59.2784H240.264V50.6577ZM257.506 50.6577H266.126V59.2784H257.506V50.6577ZM16.1264 59.2784H24.7471V67.8991H16.1264V59.2784ZM67.8506 59.2784H76.4713V67.8991H67.8506V59.2784ZM85.092 59.2784H93.7126V67.8991H85.092V59.2784ZM93.7126 59.2784H102.333V67.8991H93.7126V59.2784ZM102.333 59.2784H110.954V67.8991H102.333V59.2784ZM110.954 59.2784H119.575V67.8991H110.954V59.2784ZM119.575 59.2784H128.195V67.8991H119.575V59.2784ZM128.195 59.2784H136.816V67.8991H128.195V59.2784ZM136.816 59.2784H145.437V67.8991H136.816V59.2784ZM145.437 59.2784H154.057V67.8991H145.437V59.2784ZM171.299 59.2784H179.92V67.8991H171.299V59.2784ZM179.92 59.2784H188.54V67.8991H179.92V59.2784ZM205.782 59.2784H214.402V67.8991H205.782V59.2784ZM257.506 59.2784H266.126V67.8991H257.506V59.2784ZM16.1264 67.8991H24.7471V76.5198H16.1264V67.8991ZM24.7471 67.8991H33.3678V76.5198H24.7471V67.8991ZM33.3678 67.8991H41.9885V76.5198H33.3678V67.8991ZM41.9885 67.8991H50.6092V76.5198H41.9885V67.8991ZM50.6092 67.8991H59.2299V76.5198H50.6092V67.8991ZM59.2299 67.8991H67.8506V76.5198H59.2299V67.8991ZM67.8506 67.8991H76.4713V76.5198H67.8506V67.8991ZM85.092 67.8991H93.7126V76.5198H85.092V67.8991ZM102.333 67.8991H110.954V76.5198H102.333V67.8991ZM119.575 67.8991H128.195V76.5198H119.575V67.8991ZM136.816 67.8991H145.437V76.5198H136.816V67.8991ZM154.057 67.8991H162.678V76.5198H154.057V67.8991ZM171.299 67.8991H179.92V76.5198H171.299V67.8991ZM188.54 67.8991H197.161V76.5198H188.54V67.8991ZM205.782 67.8991H214.402V76.5198H205.782V67.8991ZM214.402 67.8991H223.023V76.5198H214.402V67.8991ZM223.023 67.8991H231.644V76.5198H223.023V67.8991ZM231.644 67.8991H240.264V76.5198H231.644V67.8991ZM240.264 67.8991H248.885V76.5198H240.264V67.8991ZM248.885 67.8991H257.506V76.5198H248.885V67.8991ZM257.506 67.8991H266.126V76.5198H257.506V67.8991ZM110.954 76.5198H119.575V85.1405H110.954V76.5198ZM119.575 76.5198H128.195V85.1405H119.575V76.5198ZM136.816 76.5198H145.437V85.1405H136.816V76.5198ZM162.678 76.5198H171.299V85.1405H162.678V76.5198ZM171.299 76.5198H179.92V85.1405H171.299V76.5198ZM179.92 76.5198H188.54V85.1405H179.92V76.5198ZM188.54 76.5198H197.161V85.1405H188.54V76.5198ZM24.7471 85.1405H33.3678V93.7612H24.7471V85.1405ZM50.6092 85.1405H59.2299V93.7612H50.6092V85.1405ZM67.8506 85.1405H76.4713V93.7612H67.8506V85.1405ZM85.092 85.1405H93.7126V93.7612H85.092V85.1405ZM93.7126 85.1405H102.333V93.7612H93.7126V85.1405ZM102.333 85.1405H110.954V93.7612H102.333V85.1405ZM110.954 85.1405H119.575V93.7612H110.954V85.1405ZM128.195 85.1405H136.816V93.7612H128.195V85.1405ZM154.057 85.1405H162.678V93.7612H154.057V85.1405ZM171.299 85.1405H179.92V93.7612H171.299V85.1405ZM179.92 85.1405H188.54V93.7612H179.92V85.1405ZM188.54 85.1405H197.161V93.7612H188.54V85.1405ZM197.161 85.1405H205.782V93.7612H197.161V85.1405ZM214.402 85.1405H223.023V93.7612H214.402V85.1405ZM223.023 85.1405H231.644V93.7612H223.023V85.1405ZM240.264 85.1405H248.885V93.7612H240.264V85.1405ZM16.1264 93.7612H24.7471V102.382H16.1264V93.7612ZM24.7471 93.7612H33.3678V102.382H24.7471V93.7612ZM41.9885 93.7612H50.6092V102.382H41.9885V93.7612ZM85.092 93.7612H93.7126V102.382H85.092V93.7612ZM110.954 93.7612H119.575V102.382H110.954V93.7612ZM128.195 93.7612H136.816V102.382H128.195V93.7612ZM154.057 93.7612H162.678V102.382H154.057V93.7612ZM162.678 93.7612H171.299V102.382H162.678V93.7612ZM179.92 93.7612H188.54V102.382H179.92V93.7612ZM188.54 93.7612H197.161V102.382H188.54V93.7612ZM205.782 93.7612H214.402V102.382H205.782V93.7612ZM214.402 93.7612H223.023V102.382H214.402V93.7612ZM223.023 93.7612H231.644V102.382H223.023V93.7612ZM240.264 93.7612H248.885V102.382H240.264V93.7612ZM248.885 93.7612H257.506V102.382H248.885V93.7612ZM257.506 93.7612H266.126V102.382H257.506V93.7612ZM16.1264 102.382H24.7471V111.003H16.1264V102.382ZM33.3678 102.382H41.9885V111.003H33.3678V102.382ZM50.6092 102.382H59.2299V111.003H50.6092V102.382ZM59.2299 102.382H67.8506V111.003H59.2299V102.382ZM67.8506 102.382H76.4713V111.003H67.8506V102.382ZM76.4713 102.382H85.092V111.003H76.4713V102.382ZM93.7126 102.382H102.333V111.003H93.7126V102.382ZM119.575 102.382H128.195V111.003H119.575V102.382ZM136.816 102.382H145.437V111.003H136.816V102.382ZM145.437 102.382H154.057V111.003H145.437V102.382ZM171.299 102.382H179.92V111.003H171.299V102.382ZM188.54 102.382H197.161V111.003H188.54V102.382ZM197.161 102.382H205.782V111.003H197.161V102.382ZM214.402 102.382H223.023V111.003H214.402V102.382ZM223.023 102.382H231.644V111.003H223.023V102.382ZM231.644 102.382H240.264V111.003H231.644V102.382ZM240.264 102.382H248.885V111.003H240.264V102.382ZM257.506 102.382H266.126V111.003H257.506V102.382ZM41.9885 111.003H50.6092V119.623H41.9885V111.003ZM93.7126 111.003H102.333V119.623H93.7126V111.003ZM119.575 111.003H128.195V119.623H119.575V111.003ZM136.816 111.003H145.437V119.623H136.816V111.003ZM145.437 111.003H154.057V119.623H145.437V111.003ZM154.057 111.003H162.678V119.623H154.057V111.003ZM162.678 111.003H171.299V119.623H162.678V111.003ZM179.92 111.003H188.54V119.623H179.92V111.003ZM188.54 111.003H197.161V119.623H188.54V111.003ZM197.161 111.003H205.782V119.623H197.161V111.003ZM223.023 111.003H231.644V119.623H223.023V111.003ZM231.644 111.003H240.264V119.623H231.644V111.003ZM248.885 111.003H257.506V119.623H248.885V111.003ZM257.506 111.003H266.126V119.623H257.506V111.003ZM24.7471 119.623H33.3678V128.244H24.7471V119.623ZM33.3678 119.623H41.9885V128.244H33.3678V119.623ZM50.6092 119.623H59.2299V128.244H50.6092V119.623ZM59.2299 119.623H67.8506V128.244H59.2299V119.623ZM67.8506 119.623H76.4713V128.244H67.8506V119.623ZM76.4713 119.623H85.092V128.244H76.4713V119.623ZM85.092 119.623H93.7126V128.244H85.092V119.623ZM93.7126 119.623H102.333V128.244H93.7126V119.623ZM102.333 119.623H110.954V128.244H102.333V119.623ZM119.575 119.623H128.195V128.244H119.575V119.623ZM136.816 119.623H145.437V128.244H136.816V119.623ZM145.437 119.623H154.057V128.244H145.437V119.623ZM162.678 119.623H171.299V128.244H162.678V119.623ZM214.402 119.623H223.023V128.244H214.402V119.623ZM257.506 119.623H266.126V128.244H257.506V119.623ZM24.7471 128.244H33.3678V136.865H24.7471V128.244ZM33.3678 128.244H41.9885V136.865H33.3678V128.244ZM41.9885 128.244H50.6092V136.865H41.9885V128.244ZM59.2299 128.244H67.8506V136.865H59.2299V128.244ZM76.4713 128.244H85.092V136.865H76.4713V128.244ZM85.092 128.244H93.7126V136.865H85.092V128.244ZM93.7126 128.244H102.333V136.865H93.7126V128.244ZM102.333 128.244H110.954V136.865H102.333V128.244ZM110.954 128.244H119.575V136.865H110.954V128.244ZM136.816 128.244H145.437V136.865H136.816V128.244ZM145.437 128.244H154.057V136.865H145.437V128.244ZM154.057 128.244H162.678V136.865H154.057V128.244ZM162.678 128.244H171.299V136.865H162.678V128.244ZM171.299 128.244H179.92V136.865H171.299V128.244ZM205.782 128.244H214.402V136.865H205.782V128.244ZM223.023 128.244H231.644V136.865H223.023V128.244ZM240.264 128.244H248.885V136.865H240.264V128.244ZM257.506 128.244H266.126V136.865H257.506V128.244ZM16.1264 136.865H24.7471V145.485H16.1264V136.865ZM24.7471 136.865H33.3678V145.485H24.7471V136.865ZM33.3678 136.865H41.9885V145.485H33.3678V136.865ZM41.9885 136.865H50.6092V145.485H41.9885V136.865ZM50.6092 136.865H59.2299V145.485H50.6092V136.865ZM67.8506 136.865H76.4713V145.485H67.8506V136.865ZM76.4713 136.865H85.092V145.485H76.4713V136.865ZM93.7126 136.865H102.333V145.485H93.7126V136.865ZM102.333 136.865H110.954V145.485H102.333V136.865ZM119.575 136.865H128.195V145.485H119.575V136.865ZM136.816 136.865H145.437V145.485H136.816V136.865ZM171.299 136.865H179.92V145.485H171.299V136.865ZM188.54 136.865H197.161V145.485H188.54V136.865ZM197.161 136.865H205.782V145.485H197.161V136.865ZM205.782 136.865H214.402V145.485H205.782V136.865ZM223.023 136.865H231.644V145.485H223.023V136.865ZM257.506 136.865H266.126V145.485H257.506V136.865ZM76.4713 145.485H85.092V154.106H76.4713V145.485ZM102.333 145.485H110.954V154.106H102.333V145.485ZM110.954 145.485H119.575V154.106H110.954V145.485ZM119.575 145.485H128.195V154.106H119.575V145.485ZM179.92 145.485H188.54V154.106H179.92V145.485ZM188.54 145.485H197.161V154.106H188.54V145.485ZM214.402 145.485H223.023V154.106H214.402V145.485ZM231.644 145.485H240.264V154.106H231.644V145.485ZM257.506 145.485H266.126V154.106H257.506V145.485ZM41.9885 154.106H50.6092V162.727H41.9885V154.106ZM59.2299 154.106H67.8506V162.727H59.2299V154.106ZM67.8506 154.106H76.4713V162.727H67.8506V154.106ZM76.4713 154.106H85.092V162.727H76.4713V154.106ZM102.333 154.106H110.954V162.727H102.333V154.106ZM110.954 154.106H119.575V162.727H110.954V154.106ZM119.575 154.106H128.195V162.727H119.575V154.106ZM128.195 154.106H136.816V162.727H128.195V154.106ZM145.437 154.106H154.057V162.727H145.437V154.106ZM154.057 154.106H162.678V162.727H154.057V154.106ZM179.92 154.106H188.54V162.727H179.92V154.106ZM188.54 154.106H197.161V162.727H188.54V154.106ZM197.161 154.106H205.782V162.727H197.161V154.106ZM16.1264 162.727H24.7471V171.347H16.1264V162.727ZM41.9885 162.727H50.6092V171.347H41.9885V162.727ZM59.2299 162.727H67.8506V171.347H59.2299V162.727ZM85.092 162.727H93.7126V171.347H85.092V162.727ZM93.7126 162.727H102.333V171.347H93.7126V162.727ZM110.954 162.727H119.575V171.347H110.954V162.727ZM136.816 162.727H145.437V171.347H136.816V162.727ZM162.678 162.727H171.299V171.347H162.678V162.727ZM171.299 162.727H179.92V171.347H171.299V162.727ZM188.54 162.727H197.161V171.347H188.54V162.727ZM205.782 162.727H214.402V171.347H205.782V162.727ZM223.023 162.727H231.644V171.347H223.023V162.727ZM231.644 162.727H240.264V171.347H231.644V162.727ZM240.264 162.727H248.885V171.347H240.264V162.727ZM257.506 162.727H266.126V171.347H257.506V162.727ZM41.9885 171.347H50.6092V179.968H41.9885V171.347ZM59.2299 171.347H67.8506V179.968H59.2299V171.347ZM67.8506 171.347H76.4713V179.968H67.8506V171.347ZM76.4713 171.347H85.092V179.968H76.4713V171.347ZM85.092 171.347H93.7126V179.968H85.092V171.347ZM110.954 171.347H119.575V179.968H110.954V171.347ZM145.437 171.347H154.057V179.968H145.437V171.347ZM162.678 171.347H171.299V179.968H162.678V171.347ZM188.54 171.347H197.161V179.968H188.54V171.347ZM240.264 171.347H248.885V179.968H240.264V171.347ZM257.506 171.347H266.126V179.968H257.506V171.347ZM50.6092 179.968H59.2299V188.589H50.6092V179.968ZM85.092 179.968H93.7126V188.589H85.092V179.968ZM93.7126 179.968H102.333V188.589H93.7126V179.968ZM110.954 179.968H119.575V188.589H110.954V179.968ZM128.195 179.968H136.816V188.589H128.195V179.968ZM145.437 179.968H154.057V188.589H145.437V179.968ZM154.057 179.968H162.678V188.589H154.057V179.968ZM162.678 179.968H171.299V188.589H162.678V179.968ZM171.299 179.968H179.92V188.589H171.299V179.968ZM188.54 179.968H197.161V188.589H188.54V179.968ZM223.023 179.968H231.644V188.589H223.023V179.968ZM231.644 179.968H240.264V188.589H231.644V179.968ZM248.885 179.968H257.506V188.589H248.885V179.968ZM16.1264 188.589H24.7471V197.209H16.1264V188.589ZM24.7471 188.589H33.3678V197.209H24.7471V188.589ZM33.3678 188.589H41.9885V197.209H33.3678V188.589ZM41.9885 188.589H50.6092V197.209H41.9885V188.589ZM50.6092 188.589H59.2299V197.209H50.6092V188.589ZM67.8506 188.589H76.4713V197.209H67.8506V188.589ZM76.4713 188.589H85.092V197.209H76.4713V188.589ZM93.7126 188.589H102.333V197.209H93.7126V188.589ZM110.954 188.589H119.575V197.209H110.954V188.589ZM119.575 188.589H128.195V197.209H119.575V188.589ZM136.816 188.589H145.437V197.209H136.816V188.589ZM154.057 188.589H162.678V197.209H154.057V188.589ZM162.678 188.589H171.299V197.209H162.678V188.589ZM188.54 188.589H197.161V197.209H188.54V188.589ZM197.161 188.589H205.782V197.209H197.161V188.589ZM205.782 188.589H214.402V197.209H205.782V188.589ZM214.402 188.589H223.023V197.209H214.402V188.589ZM223.023 188.589H231.644V197.209H223.023V188.589ZM231.644 188.589H240.264V197.209H231.644V188.589ZM257.506 188.589H266.126V197.209H257.506V188.589ZM85.092 197.209H93.7126V205.83H85.092V197.209ZM102.333 197.209H110.954V205.83H102.333V197.209ZM110.954 197.209H119.575V205.83H110.954V197.209ZM128.195 197.209H136.816V205.83H128.195V197.209ZM136.816 197.209H145.437V205.83H136.816V197.209ZM145.437 197.209H154.057V205.83H145.437V197.209ZM154.057 197.209H162.678V205.83H154.057V197.209ZM171.299 197.209H179.92V205.83H171.299V197.209ZM188.54 197.209H197.161V205.83H188.54V197.209ZM223.023 197.209H231.644V205.83H223.023V197.209ZM240.264 197.209H248.885V205.83H240.264V197.209ZM257.506 197.209H266.126V205.83H257.506V197.209ZM16.1264 205.83H24.7471V214.451H16.1264V205.83ZM24.7471 205.83H33.3678V214.451H24.7471V205.83ZM33.3678 205.83H41.9885V214.451H33.3678V205.83ZM41.9885 205.83H50.6092V214.451H41.9885V205.83ZM50.6092 205.83H59.2299V214.451H50.6092V205.83ZM59.2299 205.83H67.8506V214.451H59.2299V205.83ZM67.8506 205.83H76.4713V214.451H67.8506V205.83ZM93.7126 205.83H102.333V214.451H93.7126V205.83ZM102.333 205.83H110.954V214.451H102.333V205.83ZM119.575 205.83H128.195V214.451H119.575V205.83ZM145.437 205.83H154.057V214.451H145.437V205.83ZM162.678 205.83H171.299V214.451H162.678V205.83ZM179.92 205.83H188.54V214.451H179.92V205.83ZM188.54 205.83H197.161V214.451H188.54V205.83ZM205.782 205.83H214.402V214.451H205.782V205.83ZM223.023 205.83H231.644V214.451H223.023V205.83ZM257.506 205.83H266.126V214.451H257.506V205.83ZM16.1264 214.451H24.7471V223.072H16.1264V214.451ZM67.8506 214.451H76.4713V223.072H67.8506V214.451ZM119.575 214.451H128.195V223.072H119.575V214.451ZM136.816 214.451H145.437V223.072H136.816V214.451ZM154.057 214.451H162.678V223.072H154.057V214.451ZM162.678 214.451H171.299V223.072H162.678V214.451ZM171.299 214.451H179.92V223.072H171.299V214.451ZM179.92 214.451H188.54V223.072H179.92V214.451ZM188.54 214.451H197.161V223.072H188.54V214.451ZM223.023 214.451H231.644V223.072H223.023V214.451ZM231.644 214.451H240.264V223.072H231.644V214.451ZM248.885 214.451H257.506V223.072H248.885V214.451ZM257.506 214.451H266.126V223.072H257.506V214.451ZM16.1264 223.072H24.7471V231.692H16.1264V223.072ZM33.3678 223.072H41.9885V231.692H33.3678V223.072ZM41.9885 223.072H50.6092V231.692H41.9885V223.072ZM50.6092 223.072H59.2299V231.692H50.6092V223.072ZM67.8506 223.072H76.4713V231.692H67.8506V223.072ZM85.092 223.072H93.7126V231.692H85.092V223.072ZM102.333 223.072H110.954V231.692H102.333V223.072ZM119.575 223.072H128.195V231.692H119.575V223.072ZM171.299 223.072H179.92V231.692H171.299V223.072ZM179.92 223.072H188.54V231.692H179.92V223.072ZM188.54 223.072H197.161V231.692H188.54V223.072ZM197.161 223.072H205.782V231.692H197.161V223.072ZM205.782 223.072H214.402V231.692H205.782V223.072ZM214.402 223.072H223.023V231.692H214.402V223.072ZM223.023 223.072H231.644V231.692H223.023V223.072ZM248.885 223.072H257.506V231.692H248.885V223.072ZM16.1264 231.692H24.7471V240.313H16.1264V231.692ZM33.3678 231.692H41.9885V240.313H33.3678V231.692ZM41.9885 231.692H50.6092V240.313H41.9885V231.692ZM50.6092 231.692H59.2299V240.313H50.6092V231.692ZM67.8506 231.692H76.4713V240.313H67.8506V231.692ZM110.954 231.692H119.575V240.313H110.954V231.692ZM119.575 231.692H128.195V240.313H119.575V231.692ZM154.057 231.692H162.678V240.313H154.057V231.692ZM162.678 231.692H171.299V240.313H162.678V231.692ZM214.402 231.692H223.023V240.313H214.402V231.692ZM231.644 231.692H240.264V240.313H231.644V231.692ZM240.264 231.692H248.885V240.313H240.264V231.692ZM248.885 231.692H257.506V240.313H248.885V231.692ZM16.1264 240.313H24.7471V248.934H16.1264V240.313ZM33.3678 240.313H41.9885V248.934H33.3678V240.313ZM41.9885 240.313H50.6092V248.934H41.9885V240.313ZM50.6092 240.313H59.2299V248.934H50.6092V240.313ZM67.8506 240.313H76.4713V248.934H67.8506V240.313ZM93.7126 240.313H102.333V248.934H93.7126V240.313ZM102.333 240.313H110.954V248.934H102.333V240.313ZM128.195 240.313H136.816V248.934H128.195V240.313ZM154.057 240.313H162.678V248.934H154.057V240.313ZM171.299 240.313H179.92V248.934H171.299V240.313ZM179.92 240.313H188.54V248.934H179.92V240.313ZM188.54 240.313H197.161V248.934H188.54V240.313ZM197.161 240.313H205.782V248.934H197.161V240.313ZM231.644 240.313H240.264V248.934H231.644V240.313ZM248.885 240.313H257.506V248.934H248.885V240.313ZM257.506 240.313H266.126V248.934H257.506V240.313ZM16.1264 248.934H24.7471V257.554H16.1264V248.934ZM67.8506 248.934H76.4713V257.554H67.8506V248.934ZM85.092 248.934H93.7126V257.554H85.092V248.934ZM102.333 248.934H110.954V257.554H102.333V248.934ZM110.954 248.934H119.575V257.554H110.954V248.934ZM162.678 248.934H171.299V257.554H162.678V248.934ZM188.54 248.934H197.161V257.554H188.54V248.934ZM214.402 248.934H223.023V257.554H214.402V248.934ZM231.644 248.934H240.264V257.554H231.644V248.934ZM248.885 248.934H257.506V257.554H248.885V248.934ZM257.506 248.934H266.126V257.554H257.506V248.934ZM16.1264 257.554H24.7471V266.175H16.1264V257.554ZM24.7471 257.554H33.3678V266.175H24.7471V257.554ZM33.3678 257.554H41.9885V266.175H33.3678V257.554ZM41.9885 257.554H50.6092V266.175H41.9885V257.554ZM50.6092 257.554H59.2299V266.175H50.6092V257.554ZM59.2299 257.554H67.8506V266.175H59.2299V257.554ZM67.8506 257.554H76.4713V266.175H67.8506V257.554ZM102.333 257.554H110.954V266.175H102.333V257.554ZM119.575 257.554H128.195V266.175H119.575V257.554ZM128.195 257.554H136.816V266.175H128.195V257.554ZM136.816 257.554H145.437V266.175H136.816V257.554ZM145.437 257.554H154.057V266.175H145.437V257.554ZM154.057 257.554H162.678V266.175H154.057V257.554ZM162.678 257.554H171.299V266.175H162.678V257.554ZM188.54 257.554H197.161V266.175H188.54V257.554ZM197.161 257.554H205.782V266.175H197.161V257.554ZM205.782 257.554H214.402V266.175H205.782V257.554ZM223.023 257.554H231.644V266.175H223.023V257.554ZM231.644 257.554H240.264V266.175H231.644V257.554ZM248.885 257.554H257.506V266.175H248.885V257.554Z" fill="black"/>
</svg>
